<?xml version="1.0" standalone="no"?>
<!DOCTYPE svg PUBLIC "-//W3C//DTD SVG 20010904//EN"
 "http://www.w3.org/TR/2001/REC-SVG-20010904/DTD/svg10.dtd">
<svg version="1.0" xmlns="http://www.w3.org/2000/svg"
 width="32.000000pt" height="32.000000pt" viewBox="0 0 32.000000 32.000000"
 preserveAspectRatio="xMidYMid meet">

<g transform="translate(0.000000,32.000000) scale(0.100000,-0.100000)"
fill="#000000" stroke="none">
<path d="M290 240 c0 -5 -10 -10 -23 -10 -13 0 -45 -14 -70 -31 l-47 -31 -31
26 c-17 14 -43 29 -57 32 -15 3 -33 7 -40 10 -6 2 -12 -1 -12 -6 0 -6 9 -10
21 -10 25 0 56 -16 86 -43 18 -16 20 -23 11 -34 -18 -22 -64 -43 -93 -43 -14
0 -25 -5 -25 -11 0 -6 7 -8 16 -5 9 3 24 6 33 6 10 0 35 11 55 25 l37 25 43
-25 c23 -14 52 -25 64 -25 12 0 25 -7 30 -16 8 -14 10 -14 22 1 11 13 11 19
-3 33 -11 10 -17 12 -17 4 0 -7 -10 -12 -21 -12 -28 0 -99 40 -99 56 0 15 79
64 103 64 10 0 17 -5 17 -12 0 -8 6 -7 16 4 9 9 13 21 10 27 -9 14 -26 14 -26
1z"/>
</g>
</svg>
